# xmcd CD database file generated by Grip 3.3.1
# 
# Track frame offsets:
#       150
#       5177
#       12840
#       24290
#       38360
#       50737
#       65752
#       79647
#       88370
#       107315
#       117110
#       126100
#       129785
#       140102
#       149647
#       161662
#       173200
#       178627
#       186575
#       205125
#       217630
# 
# Disc length: 2973 seconds
# 
# Revision: 4
# Processed by: cddbd v1.5.2PL0 Copyright (c) Steve Scherf et al.
# Submitted via: Grip 3.3.1
# 
DISCID=250b9b15
DTITLE=The Doc Watson Family - Tradition
DYEAR=1995
DGENRE=Country
TTITLE0=Georgie
TTITLE1=Fish In The Mill Pond
TTITLE2=Children's Songs
TTITLE3=I Heard My Mother Weeping
TTITLE4=Reubin's Train
TTITLE5=Biscuits
TTITLE6=Tucker's Barn
TTITLE7=Give The Fiddler A Dream
TTITLE8=And Am I Born To Die?
TTITLE9=Marthy, Won't You Have Some Good Old Cider
TTITLE10=A-Roving On A Winter's Night
TTITLE11=Arnold's Tune
TTITLE12=Pretty Saro
TTITLE13=Early, Early In The Spring
TTITLE14=Little Maggie
TTITLE15=Bill Banks
TTITLE16=Rambling Hobo
TTITLE17=One Morning In May
TTITLE18=The Faithful Soldier
TTITLE19=Omie Wise
TTITLE20=Jimmy Sutton
EXTD=
EXTT0=
EXTT1=
EXTT2=
EXTT3=
EXTT4=
EXTT5=
EXTT6=
EXTT7=
EXTT8=
EXTT9=
EXTT10=
EXTT11=
EXTT12=
EXTT13=
EXTT14=
EXTT15=
EXTT16=
EXTT17=
EXTT18=
EXTT19=
EXTT20=
PLAYORDER=
